<svg width="48" height="52" viewBox="0 0 48 52" fill="none" xmlns="http://www.w3.org/2000/svg">
    <path d="M23.5557 52C23.0599 52 22.5642 51.8693 22.1229 51.6078L1.36736 39.247C0.517525 38.7404 0 37.8306 0 36.8446V26.1182C0 24.571 1.25296 23.3181 2.8001 23.3181C4.34723 23.3181 5.60019 24.571 5.60019 26.1182V35.2539L23.5611 45.9477L41.522 35.2539V20.311L24.9938 30.1549C24.1113 30.6779 23.0109 30.6779 22.1284 30.1549L1.3728 17.7942C0.528417 17.293 0.0108923 16.3832 0.00544467 15.4026C-2.99237e-06 14.4221 0.512078 13.5069 1.35102 13.0002L22.1066 0.405238C22.9891 -0.128632 24.0895 -0.134085 24.9775 0.383443L36.8698 7.37824C38.2044 8.1627 38.6457 9.87872 37.8612 11.2079C37.0768 12.5426 35.3607 12.9839 34.0315 12.1994L23.5775 6.04901L8.23141 15.3591L23.5557 24.4839L42.884 12.973C43.7501 12.4555 44.8233 12.4446 45.7004 12.9457C46.5775 13.4415 47.1168 14.373 47.1168 15.3808V36.8392C47.1168 37.8252 46.5993 38.7404 45.7494 39.2416L24.9938 51.6023C24.5471 51.8693 24.0514 52 23.5557 52Z" fill="#FE964F"/>
</svg>
